# xmcd CD database file
#
# Track frame offsets:
#	150
#	18507
#	37985
#	56297
#
# Disc length: 1001 seconds
#
# Revision: 2
# Processed by: cddbd v1.5PL3 Copyright (c) Steve Scherf et al.
# Submitted via: CDex 1.50beta8a
#
DISCID=2503e704
DTITLE=ぴたぴたエンジェルA - はぁ〜い！はぁ〜い！はぁ〜い！
DYEAR=2002
DGENRE=Vocal
TTITLE0=はぁ〜い！はぁ〜い！はぁ〜い
TTITLE1=Go Go LOVE!
TTITLE2=はぁ〜い！はぁ〜い！はぁ〜い(カラオケ)
TTITLE3=Go Go LOVE!(カラオケ)
EXTD=YEAR: 2002
EXTT0=
EXTT1=
EXTT2=
EXTT3=
PLAYORDER=
